<svg width="1600" height="87" viewBox="0 0 1600 87" fill="none" xmlns="http://www.w3.org/2000/svg">
<path d="M508.583 42.6826H504.728L503.921 45H502.123L505.883 35.0469H507.435L511.201 45H509.396L508.583 42.6826ZM505.213 41.2881H508.098L506.655 37.1592L505.213 41.2881ZM518.666 41.377C518.666 42.5254 518.409 43.4391 517.894 44.1182C517.383 44.7972 516.679 45.1367 515.781 45.1367C514.915 45.1367 514.241 44.8245 513.758 44.2002L513.676 45H512.172V34.5H513.833V38.3145C514.312 37.7493 514.956 37.4668 515.768 37.4668C516.67 37.4668 517.379 37.8018 517.894 38.4717C518.409 39.1416 518.666 40.0781 518.666 41.2812V41.377ZM517.005 41.2334C517.005 40.4313 516.864 39.8298 516.581 39.4287C516.299 39.0277 515.888 38.8271 515.351 38.8271C514.631 38.8271 514.125 39.1416 513.833 39.7705V42.8193C514.129 43.4619 514.64 43.7832 515.364 43.7832C515.884 43.7832 516.285 43.5895 516.567 43.2021C516.85 42.8148 516.996 42.2292 517.005 41.4453V41.2334ZM519.753 41.2334C519.753 40.5088 519.896 39.8571 520.184 39.2783C520.471 38.695 520.874 38.2484 521.394 37.9385C521.913 37.624 522.51 37.4668 523.185 37.4668C524.183 37.4668 524.992 37.7881 525.611 38.4307C526.236 39.0732 526.573 39.9255 526.623 40.9873L526.63 41.377C526.63 42.1061 526.489 42.7578 526.206 43.332C525.928 43.9062 525.527 44.3506 525.003 44.665C524.483 44.9795 523.882 45.1367 523.198 45.1367C522.155 45.1367 521.318 44.7904 520.689 44.0977C520.065 43.4004 519.753 42.473 519.753 41.3154V41.2334ZM521.414 41.377C521.414 42.138 521.571 42.735 521.886 43.168C522.2 43.5964 522.638 43.8105 523.198 43.8105C523.759 43.8105 524.194 43.5918 524.504 43.1543C524.818 42.7168 524.976 42.0765 524.976 41.2334C524.976 40.486 524.814 39.8936 524.49 39.4561C524.171 39.0186 523.736 38.7998 523.185 38.7998C522.642 38.7998 522.212 39.0163 521.893 39.4492C521.574 39.8776 521.414 40.5202 521.414 41.377ZM532.516 44.2754C532.028 44.8496 531.335 45.1367 530.438 45.1367C529.635 45.1367 529.027 44.902 528.612 44.4326C528.202 43.9632 527.997 43.2842 527.997 42.3955V37.6035H529.658V42.375C529.658 43.3138 530.048 43.7832 530.827 43.7832C531.634 43.7832 532.178 43.4938 532.461 42.915V37.6035H534.122V45H532.557L532.516 44.2754ZM537.896 35.8057V37.6035H539.201V38.834H537.896V42.9629C537.896 43.2454 537.95 43.4505 538.06 43.5781C538.174 43.7012 538.374 43.7627 538.661 43.7627C538.853 43.7627 539.046 43.7399 539.242 43.6943V44.9795C538.864 45.0843 538.499 45.1367 538.148 45.1367C536.872 45.1367 536.234 44.4326 536.234 43.0244V38.834H535.018V37.6035H536.234V35.8057H537.896Z" fill="white"/>
<line x1="502" y1="50.5" x2="540" y2="50.5" stroke="white"/>
<path opacity="0.8" d="M629.088 40.5635C627.962 40.2399 627.142 39.8434 626.627 39.374C626.117 38.9001 625.861 38.3167 625.861 37.624C625.861 36.8402 626.174 36.193 626.798 35.6826C627.427 35.1676 628.243 34.9102 629.245 34.9102C629.929 34.9102 630.537 35.0423 631.07 35.3066C631.608 35.571 632.023 35.9355 632.314 36.4004C632.611 36.8652 632.759 37.3734 632.759 37.9248H631.439C631.439 37.3232 631.248 36.8516 630.865 36.5098C630.482 36.1634 629.942 35.9902 629.245 35.9902C628.598 35.9902 628.092 36.1338 627.728 36.4209C627.368 36.7035 627.188 37.0977 627.188 37.6035C627.188 38.0091 627.358 38.3532 627.7 38.6357C628.047 38.9137 628.632 39.1689 629.457 39.4014C630.286 39.6338 630.934 39.8913 631.398 40.1738C631.868 40.4518 632.214 40.7777 632.438 41.1514C632.665 41.5251 632.779 41.9648 632.779 42.4707C632.779 43.2773 632.465 43.9245 631.836 44.4121C631.207 44.8952 630.366 45.1367 629.313 45.1367C628.63 45.1367 627.992 45.0068 627.399 44.7471C626.807 44.4827 626.349 44.1227 626.025 43.667C625.706 43.2113 625.547 42.694 625.547 42.1152H626.866C626.866 42.7168 627.087 43.193 627.529 43.5439C627.976 43.8903 628.571 44.0635 629.313 44.0635C630.006 44.0635 630.537 43.9222 630.906 43.6396C631.275 43.3571 631.46 42.972 631.46 42.4844C631.46 41.9967 631.289 41.6208 630.947 41.3564C630.605 41.0876 629.986 40.8232 629.088 40.5635ZM636.689 43.1475L638.412 37.6035H639.766L636.792 46.1416C636.332 47.3721 635.6 47.9873 634.598 47.9873L634.358 47.9668L633.887 47.8779V46.8525L634.229 46.8799C634.657 46.8799 634.99 46.7933 635.227 46.6201C635.468 46.4469 635.666 46.1302 635.821 45.6699L636.102 44.918L633.463 37.6035H634.844L636.689 43.1475ZM642.274 45H641.01V34.5H642.274V45ZM645.679 45H644.414V34.5H645.679V45ZM652.275 45C652.202 44.8542 652.143 44.5944 652.098 44.2207C651.51 44.8314 650.808 45.1367 649.992 45.1367C649.263 45.1367 648.664 44.9316 648.194 44.5215C647.729 44.1068 647.497 43.5827 647.497 42.9492C647.497 42.179 647.789 41.582 648.372 41.1582C648.96 40.7298 649.785 40.5156 650.847 40.5156H652.077V39.9346C652.077 39.4925 651.945 39.1416 651.681 38.8818C651.416 38.6175 651.027 38.4854 650.512 38.4854C650.061 38.4854 649.682 38.5993 649.377 38.8271C649.072 39.055 648.919 39.3307 648.919 39.6543H647.647C647.647 39.2852 647.777 38.9297 648.037 38.5879C648.301 38.2415 648.657 37.9681 649.104 37.7676C649.555 37.5671 650.049 37.4668 650.587 37.4668C651.439 37.4668 652.107 37.681 652.59 38.1094C653.073 38.5332 653.324 39.1188 653.342 39.8662V43.2705C653.342 43.9495 653.428 44.4896 653.602 44.8906V45H652.275ZM650.177 44.0361C650.573 44.0361 650.949 43.9336 651.305 43.7285C651.66 43.5234 651.918 43.2568 652.077 42.9287V41.4111H651.086C649.536 41.4111 648.762 41.8646 648.762 42.7715C648.762 43.168 648.894 43.4779 649.158 43.7012C649.423 43.9245 649.762 44.0361 650.177 44.0361ZM661.586 41.3838C661.586 42.514 661.326 43.4232 660.807 44.1113C660.287 44.7949 659.59 45.1367 658.715 45.1367C657.781 45.1367 657.058 44.8063 656.548 44.1455L656.486 45H655.324V34.5H656.589V38.417C657.099 37.7835 657.803 37.4668 658.701 37.4668C659.599 37.4668 660.303 37.8063 660.813 38.4854C661.328 39.1644 661.586 40.0941 661.586 41.2744V41.3838ZM660.321 41.2402C660.321 40.3789 660.155 39.7135 659.822 39.2441C659.49 38.7747 659.011 38.54 658.387 38.54C657.553 38.54 656.953 38.9274 656.589 39.7021V42.9014C656.976 43.6761 657.58 44.0635 658.4 44.0635C659.007 44.0635 659.478 43.8288 659.815 43.3594C660.153 42.89 660.321 42.1836 660.321 41.2402ZM667.752 44.2686C667.26 44.8473 666.537 45.1367 665.585 45.1367C664.797 45.1367 664.195 44.9089 663.78 44.4531C663.37 43.9928 663.163 43.3138 663.158 42.416V37.6035H664.423V42.3818C664.423 43.5029 664.879 44.0635 665.79 44.0635C666.756 44.0635 667.399 43.7035 667.718 42.9834V37.6035H668.982V45H667.779L667.752 44.2686ZM675.217 43.0381C675.217 42.6963 675.087 42.432 674.827 42.2451C674.572 42.0537 674.123 41.8896 673.48 41.7529C672.842 41.6162 672.334 41.4521 671.956 41.2607C671.582 41.0693 671.304 40.8415 671.122 40.5771C670.944 40.3128 670.855 39.9984 670.855 39.6338C670.855 39.0277 671.111 38.515 671.621 38.0957C672.136 37.6764 672.792 37.4668 673.59 37.4668C674.428 37.4668 675.107 37.6833 675.627 38.1162C676.151 38.5492 676.413 39.1029 676.413 39.7773H675.142C675.142 39.431 674.993 39.1325 674.697 38.8818C674.406 38.6312 674.036 38.5059 673.59 38.5059C673.13 38.5059 672.77 38.6061 672.51 38.8066C672.25 39.0072 672.12 39.2692 672.12 39.5928C672.12 39.8981 672.241 40.1283 672.482 40.2832C672.724 40.4382 673.159 40.5863 673.788 40.7275C674.422 40.8688 674.934 41.0374 675.326 41.2334C675.718 41.4294 676.007 41.6663 676.194 41.9443C676.386 42.2178 676.481 42.5527 676.481 42.9492C676.481 43.61 676.217 44.141 675.688 44.542C675.16 44.9385 674.474 45.1367 673.631 45.1367C673.038 45.1367 672.514 45.0319 672.059 44.8223C671.603 44.6126 671.245 44.321 670.985 43.9473C670.73 43.569 670.603 43.1611 670.603 42.7236H671.867C671.89 43.1475 672.059 43.4847 672.373 43.7354C672.692 43.9814 673.111 44.1045 673.631 44.1045C674.109 44.1045 674.492 44.0088 674.779 43.8174C675.071 43.6214 675.217 43.3617 675.217 43.0381Z" fill="white"/>
<path opacity="0.8" d="M925.468 41.1035V45H924.155V35.0469H927.826C928.915 35.0469 929.768 35.3249 930.383 35.8809C931.003 36.4368 931.312 37.1729 931.312 38.0889C931.312 39.055 931.009 39.8001 930.403 40.3242C929.802 40.8438 928.938 41.1035 927.812 41.1035H925.468ZM925.468 40.0303H927.826C928.528 40.0303 929.066 39.8662 929.439 39.5381C929.813 39.2054 930 38.7269 930 38.1025C930 37.5101 929.813 37.0361 929.439 36.6807C929.066 36.3252 928.553 36.1406 927.901 36.127H925.468V40.0303ZM936.364 38.7383C936.173 38.7064 935.965 38.6904 935.742 38.6904C934.913 38.6904 934.35 39.0436 934.054 39.75V45H932.789V37.6035H934.02L934.04 38.458C934.455 37.7972 935.043 37.4668 935.804 37.4668C936.05 37.4668 936.237 37.4987 936.364 37.5625V38.7383ZM937.062 41.2334C937.062 40.5088 937.203 39.8571 937.485 39.2783C937.772 38.6995 938.169 38.2529 938.675 37.9385C939.185 37.624 939.766 37.4668 940.418 37.4668C941.425 37.4668 942.239 37.8154 942.858 38.5127C943.483 39.21 943.795 40.1374 943.795 41.2949V41.3838C943.795 42.1038 943.656 42.751 943.378 43.3252C943.104 43.8949 942.71 44.3392 942.195 44.6582C941.685 44.9772 941.097 45.1367 940.432 45.1367C939.429 45.1367 938.616 44.7881 937.991 44.0908C937.371 43.3936 937.062 42.4707 937.062 41.3223V41.2334ZM938.333 41.3838C938.333 42.2041 938.522 42.8626 938.9 43.3594C939.283 43.8561 939.794 44.1045 940.432 44.1045C941.074 44.1045 941.585 43.8538 941.963 43.3525C942.341 42.8467 942.53 42.1403 942.53 41.2334C942.53 40.4222 942.337 39.766 941.949 39.2646C941.566 38.7588 941.056 38.5059 940.418 38.5059C939.794 38.5059 939.29 38.7542 938.907 39.251C938.524 39.7477 938.333 40.4587 938.333 41.3838ZM946.687 37.6035V45.8545C946.687 47.2764 946.042 47.9873 944.752 47.9873C944.474 47.9873 944.216 47.9463 943.979 47.8643V46.8525C944.125 46.889 944.317 46.9072 944.554 46.9072C944.836 46.9072 945.05 46.8298 945.196 46.6748C945.347 46.5244 945.422 46.2601 945.422 45.8818V37.6035H946.687ZM945.292 35.6416C945.292 35.4411 945.354 35.2702 945.477 35.1289C945.604 34.9831 945.789 34.9102 946.03 34.9102C946.276 34.9102 946.463 34.9808 946.591 35.1221C946.718 35.2633 946.782 35.4365 946.782 35.6416C946.782 35.8467 946.718 36.0176 946.591 36.1543C946.463 36.291 946.276 36.3594 946.03 36.3594C945.784 36.3594 945.6 36.291 945.477 36.1543C945.354 36.0176 945.292 35.8467 945.292 35.6416ZM951.8 45.1367C950.797 45.1367 949.981 44.8086 949.353 44.1523C948.724 43.4915 948.409 42.6097 948.409 41.5068V41.2744C948.409 40.5407 948.548 39.8867 948.826 39.3125C949.109 38.7337 949.501 38.2826 950.002 37.959C950.508 37.6309 951.055 37.4668 951.643 37.4668C952.604 37.4668 953.352 37.7835 953.885 38.417C954.418 39.0505 954.685 39.9574 954.685 41.1377V41.6641H949.674C949.692 42.3932 949.904 42.9834 950.31 43.4346C950.72 43.8812 951.239 44.1045 951.868 44.1045C952.315 44.1045 952.693 44.0133 953.003 43.8311C953.313 43.6488 953.584 43.4072 953.816 43.1064L954.589 43.708C953.969 44.6605 953.039 45.1367 951.8 45.1367ZM951.643 38.5059C951.132 38.5059 950.704 38.6927 950.357 39.0664C950.011 39.4355 949.797 39.9551 949.715 40.625H953.42V40.5293C953.383 39.8867 953.21 39.39 952.9 39.0391C952.59 38.6836 952.171 38.5059 951.643 38.5059ZM959.121 44.1045C959.572 44.1045 959.966 43.9678 960.304 43.6943C960.641 43.4209 960.828 43.0791 960.864 42.6689H962.061C962.038 43.0928 961.892 43.4961 961.623 43.8789C961.354 44.2617 960.994 44.5671 960.543 44.7949C960.096 45.0228 959.622 45.1367 959.121 45.1367C958.114 45.1367 957.312 44.8018 956.715 44.1318C956.122 43.4574 955.826 42.5368 955.826 41.3701V41.1582C955.826 40.4382 955.958 39.7979 956.223 39.2373C956.487 38.6768 956.865 38.2415 957.357 37.9316C957.854 37.6217 958.44 37.4668 959.114 37.4668C959.944 37.4668 960.632 37.7152 961.179 38.2119C961.73 38.7087 962.024 39.3535 962.061 40.1465H960.864C960.828 39.668 960.646 39.276 960.317 38.9707C959.994 38.6608 959.593 38.5059 959.114 38.5059C958.472 38.5059 957.973 38.7383 957.617 39.2031C957.266 39.6634 957.091 40.3311 957.091 41.2061V41.4453C957.091 42.2975 957.266 42.9538 957.617 43.4141C957.968 43.8743 958.469 44.1045 959.121 44.1045ZM965.198 35.8125V37.6035H966.579V38.5811H965.198V43.168C965.198 43.4642 965.26 43.6875 965.383 43.8379C965.506 43.9837 965.715 44.0566 966.012 44.0566C966.158 44.0566 966.358 44.0293 966.613 43.9746V45C966.281 45.0911 965.957 45.1367 965.643 45.1367C965.077 45.1367 964.651 44.9658 964.364 44.624C964.077 44.2822 963.934 43.7969 963.934 43.168V38.5811H962.587V37.6035H963.934V35.8125H965.198ZM972.369 43.0381C972.369 42.6963 972.239 42.432 971.979 42.2451C971.724 42.0537 971.275 41.8896 970.633 41.7529C969.995 41.6162 969.487 41.4521 969.108 41.2607C968.735 41.0693 968.457 40.8415 968.274 40.5771C968.097 40.3128 968.008 39.9984 968.008 39.6338C968.008 39.0277 968.263 38.515 968.773 38.0957C969.288 37.6764 969.945 37.4668 970.742 37.4668C971.581 37.4668 972.26 37.6833 972.779 38.1162C973.303 38.5492 973.565 39.1029 973.565 39.7773H972.294C972.294 39.431 972.146 39.1325 971.85 38.8818C971.558 38.6312 971.189 38.5059 970.742 38.5059C970.282 38.5059 969.922 38.6061 969.662 38.8066C969.402 39.0072 969.272 39.2692 969.272 39.5928C969.272 39.8981 969.393 40.1283 969.635 40.2832C969.876 40.4382 970.312 40.5863 970.94 40.7275C971.574 40.8688 972.087 41.0374 972.479 41.2334C972.87 41.4294 973.16 41.6663 973.347 41.9443C973.538 42.2178 973.634 42.5527 973.634 42.9492C973.634 43.61 973.369 44.141 972.841 44.542C972.312 44.9385 971.626 45.1367 970.783 45.1367C970.191 45.1367 969.667 45.0319 969.211 44.8223C968.755 44.6126 968.397 44.321 968.138 43.9473C967.882 43.569 967.755 43.1611 967.755 42.7236H969.02C969.042 43.1475 969.211 43.4847 969.525 43.7354C969.844 43.9814 970.264 44.1045 970.783 44.1045C971.262 44.1045 971.645 44.0088 971.932 43.8174C972.223 43.6214 972.369 43.3617 972.369 43.0381Z" fill="white"/>
<path opacity="0.8" d="M1064.64 40.6045H1060.47V45H1059.16V35.0469H1065.32V36.127H1060.47V39.5312H1064.64V40.6045ZM1071.23 42.4023H1067.06L1066.12 45H1064.77L1068.57 35.0469H1069.72L1073.52 45H1072.18L1071.23 42.4023ZM1067.45 41.3223H1070.84L1069.14 36.667L1067.45 41.3223ZM1082.38 40.3447C1082.38 41.3063 1082.23 42.1357 1081.93 42.833C1081.62 43.5257 1081.19 44.068 1080.64 44.46L1082.42 45.8545L1081.52 46.6816L1079.42 45.0137C1079.1 45.0957 1078.75 45.1367 1078.38 45.1367C1077.6 45.1367 1076.91 44.9453 1076.3 44.5625C1075.69 44.1751 1075.22 43.626 1074.88 42.915C1074.55 42.1995 1074.38 41.3724 1074.37 40.4336V39.7158C1074.37 38.7588 1074.54 37.9134 1074.87 37.1797C1075.2 36.446 1075.67 35.8854 1076.28 35.498C1076.89 35.1061 1077.59 34.9102 1078.37 34.9102C1079.17 34.9102 1079.88 35.1038 1080.48 35.4912C1081.09 35.8786 1081.56 36.4368 1081.89 37.166C1082.22 37.8906 1082.38 38.7383 1082.38 39.709V40.3447ZM1081.07 39.7021C1081.07 38.5309 1080.84 37.6286 1080.37 36.9951C1079.9 36.3571 1079.24 36.0381 1078.37 36.0381C1077.55 36.0381 1076.89 36.3548 1076.42 36.9883C1075.94 37.6172 1075.7 38.4922 1075.68 39.6133V40.3447C1075.68 41.484 1075.92 42.3818 1076.4 43.0381C1076.87 43.6943 1077.54 44.0225 1078.38 44.0225C1079.23 44.0225 1079.89 43.7148 1080.35 43.0996C1080.82 42.4798 1081.06 41.5934 1081.07 40.4404V39.7021Z" fill="white"/>
<path d="M800.156 17.0008L799.997 17C799.242 17 798.493 17.0394 797.757 17.1142C797.415 17.149 797.076 17.1937 796.74 17.2439C796.718 17.2462 796.695 17.2485 796.674 17.2524C787.63 18.6293 780.383 25.5342 778.488 34.3995C778.484 34.418 778.479 34.4358 778.475 34.4535C778.415 34.7429 778.362 35.0355 778.312 35.3288C778.299 35.4029 778.284 35.4762 778.272 35.5518C778.233 35.798 778.202 36.0473 778.172 36.2966C778.157 36.4194 778.138 36.5406 778.125 36.664C778.102 36.8786 778.087 37.0963 778.071 37.3124C778.059 37.4706 778.044 37.6281 778.035 37.7863C778.023 37.9839 778.021 38.183 778.015 38.3806C778.012 38.535 778.002 38.6886 778 38.8437C778 38.8684 778.002 38.8931 778.002 38.9193C778.002 38.9456 778 38.9726 778 38.9996C778 39.0691 778.007 39.1362 778.008 39.2057C778.011 39.5955 778.024 39.9829 778.049 40.3681C778.057 40.4993 778.065 40.6305 778.076 40.7609C778.11 41.187 778.154 41.6115 778.212 42.0306C778.217 42.0677 778.22 42.1055 778.225 42.1433C778.292 42.6064 778.377 43.0633 778.471 43.5172C778.492 43.6183 778.516 43.7178 778.539 43.8182C778.624 44.1995 778.719 44.5769 778.825 44.9512C778.847 45.03 778.867 45.1079 778.889 45.1851C779.024 45.6397 779.169 46.0874 779.33 46.5281C779.338 46.5489 779.346 46.569 779.353 46.5898C779.508 47.0082 779.677 47.4188 779.855 47.8248C779.884 47.8919 779.914 47.9598 779.944 48.0262C780.333 48.8853 780.773 49.7158 781.265 50.5131C781.275 50.5293 781.283 50.5455 781.292 50.5617C781.291 50.5856 781.298 50.6103 781.297 50.6358C781.324 50.6767 781.352 50.7161 781.375 50.7593C781.399 50.774 781.423 50.7863 781.447 50.8002C782.177 51.9448 783.011 53.0185 783.935 54.0064C783.941 54.0134 783.947 54.0195 783.954 54.0257C784.872 55.0067 785.88 55.9059 786.965 56.7063C786.981 56.7186 786.996 56.7287 787.013 56.741C787.346 56.9849 787.687 57.2203 788.035 57.4472C788.075 57.4727 788.113 57.4982 788.153 57.5237C788.897 58.0007 789.669 58.4375 790.471 58.8242C790.486 58.8319 790.501 58.8381 790.516 58.845C790.881 59.0202 791.25 59.1831 791.625 59.3382C791.71 59.373 791.795 59.4062 791.878 59.4401C792.205 59.5706 792.537 59.6925 792.871 59.8083C792.952 59.8368 793.032 59.8662 793.114 59.8924C793.93 60.1626 794.766 60.3848 795.62 60.5577C795.73 60.5801 795.841 60.5994 795.952 60.6195C796.269 60.6781 796.588 60.7314 796.911 60.7769C797.04 60.7947 797.17 60.814 797.3 60.8294C797.645 60.8719 797.991 60.9051 798.339 60.9313C798.43 60.9383 798.521 60.9483 798.612 60.9537C799.02 60.9792 799.432 60.9961 799.845 60.9992L800.004 61C812.047 61 821.914 51.2016 821.999 39.1571C822.084 27.0246 812.286 17.0872 800.156 17.0008ZM798.065 59.4965C797.761 59.4679 797.459 59.4316 797.159 59.39C797.119 59.3846 797.08 59.3792 797.04 59.3737C796.739 59.3305 796.441 59.2796 796.145 59.224C796.108 59.2163 796.07 59.2101 796.032 59.2032C795.735 59.1445 795.44 59.0797 795.148 59.0079C795.113 58.9994 795.077 58.9917 795.041 58.9832C794.747 58.9099 794.457 58.8311 794.167 58.7447C794.136 58.7347 794.102 58.7262 794.071 58.7169C793.781 58.6289 793.493 58.5355 793.208 58.4352C793.179 58.4244 793.148 58.4151 793.119 58.4043C792.833 58.3017 792.549 58.1944 792.268 58.0802C792.242 58.0686 792.216 58.0585 792.189 58.0477C791.906 57.932 791.627 57.8085 791.351 57.6803C791.328 57.6695 791.304 57.6595 791.28 57.6479C791.003 57.5175 790.728 57.3809 790.458 57.2389C790.438 57.228 790.417 57.218 790.397 57.208C790.124 57.0629 789.856 56.9124 789.59 56.7565C789.573 56.7457 789.554 56.7364 789.537 56.7248C789.27 56.5674 789.008 56.4037 788.749 56.2339C788.733 56.2231 788.718 56.2146 788.702 56.2038C788.443 56.0325 788.187 55.8557 787.935 55.6728C787.922 55.6628 787.909 55.6543 787.896 55.6442C787.643 55.4605 787.396 55.2707 787.152 55.0762C787.139 55.0661 787.128 55.0569 787.116 55.0476C786.873 54.8516 786.634 54.6501 786.4 54.444C786.387 54.4332 786.377 54.4247 786.365 54.4139C786.132 54.2071 785.903 53.9956 785.68 53.7787C785.667 53.7671 785.656 53.7571 785.644 53.7455C785.423 53.5294 785.205 53.3071 784.992 53.081C784.979 53.0686 784.969 53.0555 784.956 53.0432C784.746 52.8178 784.54 52.5878 784.34 52.3531C784.333 52.3446 784.326 52.3369 784.319 52.3292C787.185 53.6946 790.274 54.698 793.521 55.2761C794.856 56.8058 796.383 58.2237 798.103 59.4996C798.091 59.4988 798.078 59.498 798.065 59.4965ZM782.41 49.6926C782.007 49.0327 781.639 48.3481 781.312 47.6419C781.293 47.6009 781.275 47.5593 781.257 47.5176C781.114 47.2065 780.98 46.8901 780.853 46.569C780.828 46.5065 780.804 46.4424 780.779 46.3791C780.657 46.0611 780.541 45.7401 780.435 45.4143C780.421 45.3688 780.405 45.324 780.39 45.2777C779.897 43.7371 779.578 42.1178 779.462 40.4437C779.461 40.4368 779.461 40.4298 779.46 40.4237C782.048 42.3069 784.93 43.8467 788.032 44.9644C788.818 48.0386 790.208 50.9422 792.145 53.5665C788.671 52.7769 785.409 51.474 782.448 49.7536C782.435 49.732 782.423 49.7127 782.41 49.6926ZM779.811 34.9529C779.859 34.7167 779.912 34.4828 779.967 34.2497C779.987 34.1672 780.005 34.083 780.025 34.0012C780.076 33.7998 780.132 33.5999 780.188 33.4015C780.221 33.2865 780.253 33.1715 780.289 33.0573C780.34 32.8828 780.396 32.7107 780.452 32.5386C780.5 32.3958 780.55 32.2538 780.6 32.1118C780.651 31.9659 780.705 31.8208 780.76 31.6764C780.777 31.6278 780.799 31.5807 780.817 31.5329C782.883 33.031 785.15 34.293 787.574 35.2778C787.383 36.4996 787.274 37.7408 787.274 38.9996C787.274 40.4661 787.416 41.911 787.675 43.3273C784.666 42.1502 781.886 40.558 779.414 38.626C779.436 37.3957 779.568 36.1932 779.797 35.0247C779.802 35.0007 779.805 34.9768 779.811 34.9529ZM781.453 30.0703C781.651 29.6604 781.867 29.2591 782.091 28.8646C782.181 28.7064 782.271 28.549 782.365 28.3938C782.585 28.0295 782.816 27.6729 783.057 27.3241C783.174 27.1535 783.297 26.986 783.419 26.8201C783.662 26.4905 783.911 26.1663 784.173 25.8529C784.31 25.6878 784.452 25.5295 784.594 25.3698C784.803 25.1336 785.017 24.9036 785.236 24.6782C785.338 24.574 785.436 24.469 785.539 24.3679C787.094 25.3675 788.77 26.2103 790.541 26.8741C789.277 29.0692 788.37 31.4202 787.835 33.8685C785.518 32.9021 783.355 31.6703 781.387 30.213C781.41 30.1652 781.43 30.1166 781.453 30.0703ZM786.834 23.1917C787.1 22.9709 787.369 22.7548 787.647 22.5464C787.806 22.426 787.97 22.311 788.133 22.1952C788.37 22.027 788.61 21.8633 788.855 21.7043C788.998 21.6125 789.141 21.5191 789.286 21.4303C789.633 21.2181 789.985 21.0151 790.346 20.8229C790.47 20.7565 790.597 20.694 790.722 20.6299C791.048 20.4648 791.378 20.3073 791.713 20.1591C791.799 20.1205 791.885 20.0788 791.972 20.0426C792.391 19.8643 792.818 19.7022 793.25 19.5509C793.342 19.5185 793.435 19.4876 793.528 19.4568C794.461 19.1472 795.422 18.8995 796.408 18.7258C796.454 18.7181 796.498 18.7096 796.545 18.7019C797.059 18.6147 797.579 18.5437 798.105 18.4958C795.335 20.552 793.045 22.9701 791.296 25.6461C789.642 25.0479 788.079 24.2838 786.621 23.3769C786.692 23.3152 786.763 23.2526 786.834 23.1917ZM800.729 33.3675C803.519 33.728 805.682 36.113 805.682 38.9981C805.682 41.8832 803.519 44.2682 800.729 44.6286V33.3675ZM794.252 53.9732C792.116 51.4254 790.562 48.5596 789.644 45.5031C792.695 46.437 795.936 46.9634 799.298 47.029V54.4317C797.581 54.3977 795.896 54.2434 794.252 53.9732ZM799.298 55.8364V58.6212C798.007 57.6911 796.821 56.6808 795.747 55.6002C796.914 55.7353 798.099 55.814 799.298 55.8364ZM789.223 43.8876C788.87 42.2954 788.679 40.6621 788.679 38.9988C788.679 37.9144 788.762 36.8431 788.914 35.7872C792.157 36.9404 795.652 37.6003 799.298 37.6759V45.625C795.771 45.5533 792.385 44.9466 789.223 43.8876ZM789.158 34.3833C789.673 31.9119 790.603 29.547 791.904 27.3457C794.239 28.0781 796.722 28.5003 799.298 28.5667V36.2712C795.732 36.1948 792.319 35.5333 789.158 34.3833ZM792.684 26.1107C794.391 23.5838 796.616 21.3045 799.297 19.3734V27.1496C797.001 27.0871 794.781 26.7344 792.684 26.1107ZM800.729 46.0465C804.295 45.6806 807.086 42.6589 807.086 38.9981C807.086 35.3373 804.295 32.3155 800.729 31.9497V25.8877C807.641 26.2697 813.153 31.9929 813.153 38.9988C813.153 46.004 807.641 51.7272 800.729 52.1092V46.0465ZM800.729 59.5737V53.5101C808.416 53.1265 814.557 46.7774 814.557 38.9988C814.557 31.2187 808.416 24.8689 800.729 24.4853V18.4233C811.814 18.813 820.673 27.984 820.595 39.1439C820.517 50.175 811.672 59.1885 800.729 59.5737Z" fill="white"/>
</svg>
